<svg xmlns="http://www.w3.org/2000/svg" xmlns:xlink="http://www.w3.org/1999/xlink" width="200" zoomAndPan="magnify" viewBox="0 0 150 149.999998" height="200" preserveAspectRatio="xMidYMid meet" version="1.0"><defs><clipPath id="1617476b17"><path d="M 16.003906 24.335938 L 128 24.335938 L 128 125.503906 L 16.003906 125.503906 Z M 16.003906 24.335938 " clip-rule="nonzero"/></clipPath><clipPath id="ef4c9905cb"><path d="M 21.945312 24.335938 L 134 24.335938 L 134 125.503906 L 21.945312 125.503906 Z M 21.945312 24.335938 " clip-rule="nonzero"/></clipPath></defs><g clip-path="url(#1617476b17)"><path fill="#e55381" d="M 20.8125 71.078125 C 23.46875 71.078125 25.621094 73.230469 25.621094 75.886719 C 25.621094 78.542969 23.46875 80.699219 20.8125 80.699219 C 18.160156 80.699219 16.003906 78.542969 16.003906 75.886719 C 16.003906 73.230469 18.160156 71.078125 20.8125 71.078125 M 23.875 44.027344 C 26.144531 44.027344 27.984375 45.867188 27.984375 48.140625 C 27.984375 50.410156 26.144531 52.25 23.875 52.25 C 21.605469 52.25 19.761719 50.410156 19.761719 48.140625 C 19.761719 45.867188 21.605469 44.027344 23.875 44.027344 Z M 41.519531 56.492188 C 45.097656 56.492188 47.996094 59.390625 47.996094 62.96875 C 47.996094 66.542969 45.097656 69.441406 41.519531 69.441406 C 37.945312 69.441406 35.042969 66.542969 35.042969 62.96875 C 35.046875 59.390625 37.945312 56.492188 41.519531 56.492188 Z M 49.003906 31.574219 C 52.308594 31.574219 54.996094 34.253906 54.996094 37.566406 C 54.996094 40.875 52.308594 43.558594 49.003906 43.558594 C 45.695312 43.558594 43.011719 40.875 43.011719 37.566406 C 43.011719 34.253906 45.695312 31.574219 49.003906 31.574219 Z M 84.464844 35.792969 L 96.285156 53.128906 L 96.757812 53.117188 C 102.707031 53.117188 107.53125 57.945312 107.53125 63.890625 C 107.53125 69.839844 102.707031 74.664062 96.757812 74.664062 C 93.957031 74.664062 91.316406 73.582031 89.339844 71.703125 L 82.875 74.046875 C 82.195312 76.339844 80.621094 78.246094 78.5625 79.355469 C 80.257812 79.921875 81.746094 81.003906 82.800781 82.457031 L 90.902344 82.421875 C 92.460938 80.386719 94.902344 79.136719 97.550781 79.136719 C 102.171875 79.136719 105.917969 82.886719 105.917969 87.507812 C 105.917969 92.128906 102.171875 95.878906 97.550781 95.878906 C 94.914062 95.878906 92.484375 94.640625 90.925781 92.625 L 82.726562 92.660156 C 81.429688 94.386719 79.519531 95.574219 77.375 95.960938 L 74.3125 102.519531 C 74.660156 103.421875 74.835938 104.382812 74.835938 105.363281 C 74.835938 107.886719 73.65625 110.140625 71.820312 111.59375 C 77.121094 113.097656 81.882812 116.203125 85.410156 120.542969 L 102.875 120.542969 L 109.199219 108.058594 C 117.910156 105.871094 124.058594 106.191406 120.894531 95.59375 C 123.707031 92.90625 125.441406 91.925781 122.277344 89.578125 C 123.59375 88.898438 124.011719 88.238281 124.199219 87.335938 L 121.910156 83 C 126.488281 80.378906 128.585938 77.757812 126.96875 75.890625 L 116.53125 63.90625 C 114.757812 42.054688 100.449219 32.148438 85.109375 31.308594 C 85.125 31.550781 85.132812 31.796875 85.132812 32.042969 C 85.132812 33.332031 84.90625 34.597656 84.464844 35.792969 Z M 82.019531 31.261719 C 81.628906 27.378906 78.347656 24.347656 74.363281 24.347656 C 70.109375 24.347656 66.664062 27.796875 66.664062 32.042969 C 66.664062 32.875 66.796875 33.679688 67.042969 34.425781 C 68.042969 37.511719 70.941406 39.742188 74.363281 39.742188 C 75.652344 39.742188 76.863281 39.425781 77.929688 38.867188 L 91.292969 58.46875 C 89.914062 59.863281 89.0625 61.777344 89.0625 63.890625 L 89.070312 64.214844 L 78.910156 67.898438 C 77.839844 66.550781 76.1875 65.683594 74.335938 65.683594 C 71.117188 65.683594 68.503906 68.296875 68.503906 71.515625 C 68.503906 74.738281 71.117188 77.347656 74.335938 77.347656 C 77.472656 77.347656 80.03125 74.867188 80.160156 71.761719 L 90.304688 68.082031 C 91.675781 70.191406 94.054688 71.585938 96.757812 71.585938 C 101.007812 71.585938 104.457031 68.136719 104.457031 63.890625 C 104.457031 59.636719 101.011719 56.191406 96.757812 56.191406 C 96.089844 56.191406 95.4375 56.277344 94.820312 56.4375 L 80.929688 36.0625 C 81.648438 34.890625 82.058594 33.515625 82.058594 32.042969 C 82.058594 31.78125 82.042969 31.519531 82.019531 31.261719 Z M 64.152344 101.332031 C 62.863281 102.210938 62.019531 103.6875 62.019531 105.359375 C 62.019531 107.886719 63.941406 109.964844 66.402344 110.210938 C 66.5625 110.226562 66.726562 110.234375 66.890625 110.234375 C 69.582031 110.234375 71.765625 108.050781 71.765625 105.359375 C 71.765625 104.328125 71.441406 103.367188 70.894531 102.578125 L 75.367188 93 L 75.855469 93.019531 C 78.164062 93.019531 80.140625 91.601562 80.960938 89.589844 L 92.664062 89.539062 C 93.460938 91.453125 95.351562 92.800781 97.550781 92.800781 C 100.476562 92.800781 102.84375 90.429688 102.84375 87.507812 C 102.84375 84.585938 100.476562 82.210938 97.550781 82.210938 C 95.34375 82.210938 93.453125 83.566406 92.65625 85.488281 L 81.007812 85.539062 C 80.214844 83.464844 78.207031 81.992188 75.859375 81.992188 C 74.039062 81.992188 72.425781 82.875 71.417969 84.238281 L 61.773438 78.953125 C 61.875 78.5 61.925781 78.023438 61.925781 77.535156 C 61.925781 75.464844 60.992188 73.609375 59.515625 72.378906 L 63.550781 62.40625 C 63.972656 62.457031 64.398438 62.488281 64.828125 62.488281 C 70.335938 62.488281 74.800781 58.023438 74.800781 52.515625 C 74.800781 47.007812 70.335938 42.546875 64.828125 42.546875 C 59.324219 42.546875 54.859375 47.007812 54.859375 52.515625 C 54.859375 56.152344 56.804688 59.332031 59.710938 61.074219 L 55.761719 70.839844 L 55.207031 70.816406 C 51.496094 70.816406 48.488281 73.824219 48.488281 77.535156 C 48.488281 81.246094 51.496094 84.253906 55.207031 84.253906 C 56.964844 84.253906 58.566406 83.578125 59.761719 82.472656 L 70.398438 88.300781 C 70.558594 89.398438 71.039062 90.390625 71.746094 91.179688 L 67.386719 100.515625 L 66.894531 100.488281 C 65.875 100.488281 64.929688 100.800781 64.152344 101.332031 Z M 74.332031 62.609375 C 76.269531 62.609375 78.121094 63.238281 79.640625 64.363281 L 86.152344 62 C 86.378906 60.71875 86.839844 59.488281 87.503906 58.371094 L 76.722656 42.558594 C 75.953125 42.730469 75.160156 42.820312 74.363281 42.820312 L 73.519531 42.789062 C 76.191406 45.175781 77.875 48.648438 77.875 52.515625 C 77.875 56.644531 75.957031 60.324219 72.960938 62.71875 C 73.40625 62.644531 73.867188 62.609375 74.332031 62.609375 Z M 64.050781 114.460938 C 67.140625 114.460938 69.648438 116.96875 69.648438 120.0625 C 69.648438 123.152344 67.140625 125.660156 64.050781 125.660156 C 60.960938 125.660156 58.453125 123.152344 58.453125 120.0625 C 58.453125 116.96875 60.960938 114.460938 64.050781 114.460938 Z M 46.636719 105.980469 C 49.730469 105.980469 52.238281 108.484375 52.238281 111.578125 C 52.238281 114.667969 49.730469 117.175781 46.636719 117.175781 C 43.546875 117.175781 41.039062 114.667969 41.039062 111.578125 C 41.039062 108.484375 43.546875 105.980469 46.636719 105.980469 Z M 37.988281 86.558594 C 40.597656 86.558594 42.710938 88.671875 42.710938 91.28125 C 42.710938 93.886719 40.597656 96.003906 37.988281 96.003906 C 35.378906 96.003906 33.269531 93.886719 33.269531 91.28125 C 33.269531 88.671875 35.382812 86.558594 37.988281 86.558594 Z M 37.988281 86.558594 " fill-opacity="1" fill-rule="evenodd"/></g><g clip-path="url(#ef4c9905cb)"><path fill="#f8f8ff" d="M 26.753906 71.078125 C 29.410156 71.078125 31.5625 73.230469 31.5625 75.886719 C 31.5625 78.542969 29.410156 80.699219 26.753906 80.699219 C 24.097656 80.699219 21.945312 78.542969 21.945312 75.886719 C 21.945312 73.230469 24.097656 71.078125 26.753906 71.078125 M 29.8125 44.027344 C 32.082031 44.027344 33.925781 45.867188 33.925781 48.140625 C 33.925781 50.410156 32.082031 52.25 29.8125 52.25 C 27.542969 52.25 25.703125 50.410156 25.703125 48.140625 C 25.703125 45.867188 27.542969 44.027344 29.8125 44.027344 Z M 47.460938 56.492188 C 51.035156 56.492188 53.9375 59.390625 53.9375 62.96875 C 53.9375 66.542969 51.035156 69.441406 47.460938 69.441406 C 43.886719 69.441406 40.984375 66.542969 40.984375 62.96875 C 40.984375 59.390625 43.886719 56.492188 47.460938 56.492188 Z M 54.941406 31.574219 C 58.25 31.574219 60.933594 34.253906 60.933594 37.566406 C 60.933594 40.875 58.25 43.558594 54.941406 43.558594 C 51.632812 43.558594 48.953125 40.875 48.953125 37.566406 C 48.953125 34.253906 51.632812 31.574219 54.941406 31.574219 Z M 90.40625 35.792969 L 102.222656 53.128906 L 102.699219 53.117188 C 108.648438 53.117188 113.46875 57.945312 113.46875 63.890625 C 113.46875 69.839844 108.648438 74.664062 102.699219 74.664062 C 99.898438 74.664062 97.257812 73.582031 95.28125 71.703125 L 88.8125 74.046875 C 88.136719 76.339844 86.558594 78.246094 84.5 79.355469 C 86.199219 79.921875 87.6875 81.003906 88.738281 82.457031 L 96.84375 82.421875 C 98.398438 80.386719 100.839844 79.136719 103.488281 79.136719 C 108.109375 79.136719 111.859375 82.886719 111.859375 87.507812 C 111.859375 92.128906 108.113281 95.878906 103.488281 95.878906 C 100.855469 95.878906 98.425781 94.640625 96.867188 92.625 L 88.664062 92.660156 C 87.371094 94.386719 85.460938 95.574219 83.316406 95.960938 L 80.253906 102.519531 C 80.597656 103.421875 80.777344 104.382812 80.777344 105.363281 C 80.777344 107.886719 79.597656 110.140625 77.757812 111.59375 C 83.058594 113.097656 87.820312 116.203125 91.351562 120.542969 L 108.816406 120.542969 L 115.140625 108.058594 C 123.851562 105.871094 129.996094 106.191406 126.835938 95.59375 C 129.648438 92.90625 131.382812 91.925781 128.214844 89.578125 C 129.535156 88.898438 129.953125 88.238281 130.140625 87.335938 L 127.851562 83 C 132.429688 80.378906 134.527344 77.757812 132.910156 75.890625 L 122.46875 63.90625 C 120.699219 42.054688 106.390625 32.148438 91.050781 31.308594 C 91.066406 31.550781 91.074219 31.796875 91.074219 32.042969 C 91.074219 33.332031 90.847656 34.597656 90.40625 35.792969 Z M 87.960938 31.261719 C 87.566406 27.378906 84.289062 24.347656 80.300781 24.347656 C 76.050781 24.347656 72.605469 27.796875 72.605469 32.042969 C 72.605469 32.875 72.738281 33.679688 72.980469 34.425781 C 73.984375 37.511719 76.882812 39.742188 80.300781 39.742188 C 81.589844 39.742188 82.800781 39.425781 83.867188 38.867188 L 97.234375 58.46875 C 95.855469 59.863281 95 61.777344 95 63.890625 L 95.007812 64.214844 L 84.847656 67.898438 C 83.78125 66.550781 82.128906 65.683594 80.273438 65.683594 C 77.054688 65.683594 74.441406 68.296875 74.441406 71.515625 C 74.441406 74.738281 77.054688 77.347656 80.273438 77.347656 C 83.414062 77.347656 85.972656 74.867188 86.101562 71.761719 L 96.242188 68.082031 C 97.617188 70.191406 99.996094 71.585938 102.699219 71.585938 C 106.949219 71.585938 110.394531 68.136719 110.394531 63.890625 C 110.394531 59.636719 106.949219 56.191406 102.699219 56.191406 C 102.027344 56.191406 101.378906 56.277344 100.757812 56.4375 L 86.867188 36.0625 C 87.585938 34.890625 88 33.515625 88 32.042969 C 88 31.78125 87.984375 31.519531 87.960938 31.261719 Z M 70.089844 101.332031 C 68.804688 102.210938 67.957031 103.6875 67.957031 105.359375 C 67.957031 107.886719 69.882812 109.964844 72.339844 110.210938 C 72.503906 110.226562 72.664062 110.234375 72.832031 110.234375 C 75.523438 110.234375 77.703125 108.050781 77.703125 105.359375 C 77.703125 104.328125 77.382812 103.367188 76.832031 102.578125 L 81.308594 93 L 81.796875 93.019531 C 84.101562 93.019531 86.078125 91.601562 86.902344 89.589844 L 98.605469 89.539062 C 99.402344 91.453125 101.289062 92.800781 103.492188 92.800781 C 106.414062 92.800781 108.785156 90.429688 108.785156 87.507812 C 108.785156 84.585938 106.414062 82.210938 103.492188 82.210938 C 101.28125 82.210938 99.390625 83.566406 98.597656 85.488281 L 86.949219 85.539062 C 86.15625 83.464844 84.148438 81.992188 81.796875 81.992188 C 79.976562 81.992188 78.363281 82.875 77.359375 84.238281 L 67.714844 78.953125 C 67.8125 78.5 67.867188 78.023438 67.867188 77.535156 C 67.867188 75.464844 66.929688 73.609375 65.457031 72.378906 L 69.492188 62.40625 C 69.910156 62.457031 70.339844 62.488281 70.769531 62.488281 C 76.277344 62.488281 80.738281 58.023438 80.738281 52.515625 C 80.738281 47.007812 76.277344 42.546875 70.769531 42.546875 C 65.261719 42.546875 60.800781 47.007812 60.800781 52.515625 C 60.800781 56.152344 62.746094 59.332031 65.652344 61.074219 L 61.703125 70.839844 L 61.148438 70.816406 C 57.4375 70.816406 54.425781 73.824219 54.425781 77.535156 C 54.425781 81.246094 57.4375 84.253906 61.148438 84.253906 C 62.90625 84.253906 64.507812 83.578125 65.703125 82.472656 L 76.339844 88.300781 C 76.5 89.398438 76.980469 90.390625 77.683594 91.179688 L 73.328125 100.515625 L 72.832031 100.488281 C 71.816406 100.488281 70.871094 100.800781 70.089844 101.332031 Z M 80.273438 62.609375 C 82.210938 62.609375 84.0625 63.238281 85.578125 64.363281 L 92.089844 62 C 92.320312 60.71875 92.777344 59.488281 93.445312 58.371094 L 82.660156 42.558594 C 81.890625 42.730469 81.101562 42.820312 80.300781 42.820312 L 79.460938 42.789062 C 82.132812 45.175781 83.8125 48.648438 83.8125 52.515625 C 83.8125 56.644531 81.894531 60.324219 78.902344 62.71875 C 79.347656 62.644531 79.804688 62.609375 80.273438 62.609375 Z M 69.992188 114.460938 C 73.082031 114.460938 75.589844 116.96875 75.589844 120.0625 C 75.589844 123.152344 73.082031 125.660156 69.992188 125.660156 C 66.902344 125.660156 64.394531 123.152344 64.394531 120.0625 C 64.394531 116.96875 66.898438 114.460938 69.992188 114.460938 Z M 52.578125 105.980469 C 55.671875 105.980469 58.175781 108.484375 58.175781 111.578125 C 58.175781 114.667969 55.671875 117.175781 52.578125 117.175781 C 49.488281 117.175781 46.980469 114.667969 46.980469 111.578125 C 46.980469 108.484375 49.488281 105.980469 52.578125 105.980469 Z M 43.929688 86.558594 C 46.539062 86.558594 48.652344 88.671875 48.652344 91.28125 C 48.652344 93.886719 46.539062 96.003906 43.929688 96.003906 C 41.320312 96.003906 39.207031 93.886719 39.207031 91.28125 C 39.207031 88.671875 41.320312 86.558594 43.929688 86.558594 Z M 43.929688 86.558594 " fill-opacity="1" fill-rule="evenodd"/></g></svg>