<svg xmlns="http://www.w3.org/2000/svg" xmlns:xlink="http://www.w3.org/1999/xlink" width="200" zoomAndPan="magnify" viewBox="0 0 150 149.999998" height="200" preserveAspectRatio="xMidYMid meet" version="1.0"><defs><clipPath id="a720af923c"><path d="M 15.53125 23.933594 L 128 23.933594 L 128 125.90625 L 15.53125 125.90625 Z M 15.53125 23.933594 " clip-rule="nonzero"/></clipPath><clipPath id="1160563610"><path d="M 21.519531 23.933594 L 134 23.933594 L 134 125.90625 L 21.519531 125.90625 Z M 21.519531 23.933594 " clip-rule="nonzero"/></clipPath></defs><g clip-path="url(#a720af923c)"><path fill="#e55381" d="M 20.378906 71.046875 C 23.058594 71.046875 25.226562 73.214844 25.226562 75.894531 C 25.226562 78.570312 23.058594 80.742188 20.378906 80.742188 C 17.703125 80.742188 15.53125 78.570312 15.53125 75.894531 C 15.53125 73.21875 17.703125 71.046875 20.378906 71.046875 M 23.464844 43.78125 C 25.753906 43.78125 27.605469 45.636719 27.605469 47.925781 C 27.605469 50.214844 25.753906 52.066406 23.464844 52.066406 C 21.175781 52.066406 19.320312 50.214844 19.320312 47.925781 C 19.320312 45.636719 21.175781 43.78125 23.464844 43.78125 Z M 41.25 56.34375 C 44.855469 56.34375 47.777344 59.265625 47.777344 62.871094 C 47.777344 66.476562 44.855469 69.398438 41.25 69.398438 C 37.648438 69.398438 34.722656 66.472656 34.722656 62.871094 C 34.726562 59.265625 37.648438 56.34375 41.25 56.34375 Z M 48.792969 31.226562 C 52.128906 31.226562 54.832031 33.929688 54.832031 37.265625 C 54.832031 40.601562 52.128906 43.308594 48.792969 43.308594 C 45.457031 43.308594 42.753906 40.601562 42.753906 37.265625 C 42.753906 33.929688 45.457031 31.226562 48.792969 31.226562 Z M 84.539062 35.480469 L 96.453125 52.953125 L 96.929688 52.945312 C 102.925781 52.945312 107.789062 57.808594 107.789062 63.800781 C 107.789062 69.796875 102.925781 74.664062 96.929688 74.664062 C 94.109375 74.664062 91.445312 73.570312 89.453125 71.675781 L 82.933594 74.039062 C 82.253906 76.351562 80.664062 78.269531 78.585938 79.390625 C 80.296875 79.960938 81.796875 81.050781 82.859375 82.515625 L 91.027344 82.480469 C 92.597656 80.429688 95.058594 79.171875 97.726562 79.171875 C 102.386719 79.171875 106.164062 82.949219 106.164062 87.609375 C 106.164062 92.265625 102.386719 96.042969 97.726562 96.042969 C 95.070312 96.042969 92.621094 94.796875 91.050781 92.765625 L 82.785156 92.800781 C 81.480469 94.542969 79.554688 95.738281 77.394531 96.128906 L 74.304688 102.742188 C 74.652344 103.648438 74.832031 104.617188 74.832031 105.605469 C 74.832031 108.148438 73.644531 110.421875 71.792969 111.886719 C 77.136719 113.402344 81.933594 116.53125 85.492188 120.90625 L 103.09375 120.90625 L 109.46875 108.324219 C 118.253906 106.121094 124.449219 106.441406 121.261719 95.757812 C 124.09375 93.050781 125.84375 92.0625 122.652344 89.695312 C 123.980469 89.011719 124.402344 88.34375 124.589844 87.433594 L 122.285156 83.066406 C 126.898438 80.421875 129.011719 77.78125 127.382812 75.898438 L 116.859375 63.816406 C 115.074219 41.789062 100.652344 31.804688 85.1875 30.960938 C 85.203125 31.207031 85.214844 31.453125 85.214844 31.703125 C 85.214844 32.996094 84.984375 34.273438 84.539062 35.480469 Z M 82.074219 30.914062 C 81.679688 27 78.371094 23.945312 74.355469 23.945312 C 70.070312 23.945312 66.597656 27.417969 66.597656 31.703125 C 66.597656 32.539062 66.730469 33.347656 66.976562 34.105469 C 67.988281 37.210938 70.910156 39.460938 74.355469 39.460938 C 75.652344 39.460938 76.875 39.140625 77.949219 38.578125 L 91.421875 58.339844 C 90.03125 59.742188 89.171875 61.671875 89.171875 63.800781 L 89.179688 64.128906 L 78.9375 67.84375 C 77.859375 66.484375 76.195312 65.609375 74.328125 65.609375 C 71.082031 65.609375 68.449219 68.242188 68.449219 71.488281 C 68.449219 74.734375 71.082031 77.367188 74.328125 77.367188 C 77.492188 77.367188 80.070312 74.863281 80.199219 71.734375 L 90.421875 68.027344 C 91.808594 70.152344 94.203125 71.558594 96.929688 71.558594 C 101.214844 71.558594 104.6875 68.082031 104.6875 63.800781 C 104.6875 59.515625 101.214844 56.039062 96.929688 56.039062 C 96.253906 56.039062 95.597656 56.128906 94.976562 56.289062 L 80.972656 35.753906 C 81.699219 34.570312 82.113281 33.183594 82.113281 31.703125 C 82.113281 31.4375 82.097656 31.171875 82.074219 30.914062 Z M 64.0625 101.542969 C 62.765625 102.425781 61.914062 103.914062 61.914062 105.601562 C 61.914062 108.148438 63.851562 110.242188 66.332031 110.492188 C 66.492188 110.507812 66.65625 110.515625 66.824219 110.515625 C 69.535156 110.515625 71.738281 108.316406 71.738281 105.601562 C 71.738281 104.5625 71.410156 103.59375 70.859375 102.800781 L 75.367188 93.140625 L 75.859375 93.164062 C 78.1875 93.164062 80.179688 91.734375 81.007812 89.707031 L 92.804688 89.65625 C 93.605469 91.585938 95.511719 92.941406 97.730469 92.941406 C 100.675781 92.941406 103.066406 90.554688 103.066406 87.605469 C 103.066406 84.660156 100.675781 82.269531 97.730469 82.269531 C 95.503906 82.269531 93.597656 83.632812 92.796875 85.570312 L 81.054688 85.621094 C 80.253906 83.535156 78.230469 82.050781 75.863281 82.050781 C 74.027344 82.050781 72.402344 82.9375 71.386719 84.308594 L 61.667969 78.988281 C 61.769531 78.527344 61.820312 78.046875 61.820312 77.554688 C 61.820312 75.46875 60.875 73.601562 59.390625 72.359375 L 63.457031 62.304688 C 63.878906 62.359375 64.3125 62.386719 64.746094 62.386719 C 70.296875 62.386719 74.796875 57.886719 74.796875 52.335938 C 74.796875 46.785156 70.296875 42.285156 64.746094 42.285156 C 59.195312 42.285156 54.695312 46.785156 54.695312 52.335938 C 54.695312 56 56.660156 59.207031 59.585938 60.964844 L 55.609375 70.804688 L 55.046875 70.78125 C 51.308594 70.78125 48.273438 73.8125 48.273438 77.554688 C 48.273438 81.296875 51.308594 84.328125 55.046875 84.328125 C 56.820312 84.328125 58.433594 83.648438 59.640625 82.535156 L 70.363281 88.40625 C 70.519531 89.515625 71.007812 90.511719 71.71875 91.308594 L 67.324219 100.71875 L 66.824219 100.691406 C 65.800781 100.691406 64.847656 101.007812 64.0625 101.542969 Z M 74.324219 62.511719 C 76.277344 62.511719 78.144531 63.144531 79.675781 64.277344 L 86.238281 61.898438 C 86.46875 60.601562 86.929688 59.367188 87.601562 58.238281 L 76.734375 42.300781 C 75.957031 42.472656 75.160156 42.5625 74.355469 42.5625 L 73.503906 42.53125 C 76.199219 44.9375 77.894531 48.4375 77.894531 52.335938 C 77.894531 56.496094 75.960938 60.207031 72.941406 62.621094 C 73.394531 62.546875 73.855469 62.511719 74.324219 62.511719 Z M 63.960938 114.777344 C 67.078125 114.777344 69.605469 117.304688 69.605469 120.421875 C 69.605469 123.535156 67.078125 126.0625 63.960938 126.0625 C 60.847656 126.0625 58.320312 123.535156 58.320312 120.421875 C 58.320312 117.304688 60.84375 114.777344 63.960938 114.777344 Z M 46.410156 106.226562 C 49.527344 106.226562 52.050781 108.753906 52.050781 111.871094 C 52.050781 114.988281 49.527344 117.511719 46.410156 117.511719 C 43.292969 117.511719 40.765625 114.988281 40.765625 111.871094 C 40.765625 108.753906 43.292969 106.226562 46.410156 106.226562 Z M 37.691406 86.652344 C 40.320312 86.652344 42.453125 88.78125 42.453125 91.410156 C 42.453125 94.039062 40.320312 96.171875 37.691406 96.171875 C 35.0625 96.171875 32.933594 94.039062 32.933594 91.410156 C 32.933594 88.78125 35.0625 86.652344 37.691406 86.652344 Z M 37.691406 86.652344 " fill-opacity="1" fill-rule="evenodd"/></g><g clip-path="url(#1160563610)"><path fill="#2b2926" d="M 26.367188 71.046875 C 29.042969 71.046875 31.214844 73.214844 31.214844 75.894531 C 31.214844 78.570312 29.042969 80.742188 26.367188 80.742188 C 23.691406 80.742188 21.519531 78.570312 21.519531 75.894531 C 21.519531 73.21875 23.691406 71.046875 26.367188 71.046875 M 29.449219 43.78125 C 31.738281 43.78125 33.59375 45.636719 33.59375 47.925781 C 33.59375 50.214844 31.738281 52.066406 29.449219 52.066406 C 27.164062 52.066406 25.308594 50.214844 25.308594 47.925781 C 25.308594 45.636719 27.164062 43.78125 29.449219 43.78125 Z M 47.238281 56.34375 C 50.84375 56.34375 53.765625 59.265625 53.765625 62.871094 C 53.765625 66.476562 50.84375 69.398438 47.238281 69.398438 C 43.632812 69.398438 40.710938 66.472656 40.710938 62.871094 C 40.710938 59.265625 43.632812 56.34375 47.238281 56.34375 Z M 54.78125 31.226562 C 58.113281 31.226562 60.820312 33.929688 60.820312 37.265625 C 60.820312 40.601562 58.113281 43.308594 54.78125 43.308594 C 51.445312 43.308594 48.742188 40.601562 48.742188 37.265625 C 48.742188 33.929688 51.445312 31.226562 54.78125 31.226562 Z M 90.527344 35.480469 L 102.4375 52.953125 L 102.917969 52.945312 C 108.914062 52.945312 113.773438 57.808594 113.773438 63.800781 C 113.773438 69.796875 108.914062 74.664062 102.917969 74.664062 C 100.09375 74.664062 97.433594 73.570312 95.441406 71.675781 L 88.921875 74.039062 C 88.238281 76.351562 86.648438 78.269531 84.574219 79.390625 C 86.285156 79.960938 87.785156 81.050781 88.847656 82.515625 L 97.015625 82.480469 C 98.585938 80.429688 101.046875 79.171875 103.714844 79.171875 C 108.371094 79.171875 112.152344 82.949219 112.152344 87.609375 C 112.152344 92.265625 108.375 96.042969 103.714844 96.042969 C 101.058594 96.042969 98.609375 94.796875 97.039062 92.765625 L 88.773438 92.800781 C 87.464844 94.542969 85.539062 95.738281 83.378906 96.128906 L 80.292969 102.742188 C 80.640625 103.648438 80.820312 104.617188 80.820312 105.605469 C 80.820312 108.148438 79.632812 110.421875 77.777344 111.886719 C 83.121094 113.402344 87.921875 116.53125 91.480469 120.90625 L 109.082031 120.90625 L 115.457031 108.324219 C 124.238281 106.121094 130.433594 106.441406 127.246094 95.757812 C 130.082031 93.050781 131.828125 92.0625 128.640625 89.695312 C 129.964844 89.011719 130.386719 88.34375 130.578125 87.433594 L 128.269531 83.066406 C 132.886719 80.421875 135 77.78125 133.371094 75.898438 L 122.847656 63.816406 C 121.058594 41.789062 106.640625 31.804688 91.175781 30.960938 C 91.191406 31.207031 91.199219 31.453125 91.199219 31.703125 C 91.199219 32.996094 90.96875 34.273438 90.527344 35.480469 Z M 88.0625 30.914062 C 87.664062 27 84.359375 23.945312 80.34375 23.945312 C 76.058594 23.945312 72.582031 27.417969 72.582031 31.703125 C 72.582031 32.539062 72.714844 33.347656 72.960938 34.105469 C 73.972656 37.210938 76.894531 39.460938 80.34375 39.460938 C 81.640625 39.460938 82.863281 39.140625 83.9375 38.578125 L 97.410156 58.339844 C 96.019531 59.742188 95.160156 61.671875 95.160156 63.800781 L 95.167969 64.128906 L 84.925781 67.84375 C 83.847656 66.484375 82.183594 65.609375 80.316406 65.609375 C 77.070312 65.609375 74.4375 68.242188 74.4375 71.488281 C 74.4375 74.734375 77.070312 77.367188 80.316406 77.367188 C 83.480469 77.367188 86.058594 74.863281 86.1875 71.734375 L 96.410156 68.027344 C 97.796875 70.152344 100.191406 71.558594 102.917969 71.558594 C 107.203125 71.558594 110.675781 68.082031 110.675781 63.800781 C 110.675781 59.515625 107.203125 56.039062 102.917969 56.039062 C 102.242188 56.039062 101.585938 56.128906 100.964844 56.289062 L 86.960938 35.753906 C 87.683594 34.570312 88.101562 33.183594 88.101562 31.703125 C 88.101562 31.4375 88.085938 31.171875 88.0625 30.914062 Z M 70.050781 101.542969 C 68.753906 102.425781 67.902344 103.914062 67.902344 105.601562 C 67.902344 108.148438 69.839844 110.242188 72.316406 110.492188 C 72.480469 110.507812 72.644531 110.515625 72.8125 110.515625 C 75.523438 110.515625 77.722656 108.316406 77.722656 105.601562 C 77.722656 104.5625 77.398438 103.59375 76.847656 102.800781 L 81.355469 93.140625 L 81.847656 93.164062 C 84.171875 93.164062 86.167969 91.734375 86.996094 89.707031 L 98.789062 89.65625 C 99.59375 91.585938 101.5 92.941406 103.71875 92.941406 C 106.664062 92.941406 109.054688 90.554688 109.054688 87.605469 C 109.054688 84.660156 106.664062 82.269531 103.71875 82.269531 C 101.492188 82.269531 99.582031 83.632812 98.78125 85.570312 L 87.042969 85.621094 C 86.242188 83.535156 84.21875 82.050781 81.847656 82.050781 C 80.015625 82.050781 78.390625 82.9375 77.375 84.308594 L 67.65625 78.988281 C 67.753906 78.527344 67.808594 78.046875 67.808594 77.554688 C 67.808594 75.46875 66.863281 73.601562 65.378906 72.359375 L 69.445312 62.304688 C 69.867188 62.359375 70.296875 62.386719 70.734375 62.386719 C 76.285156 62.386719 80.78125 57.886719 80.78125 52.335938 C 80.78125 46.785156 76.285156 42.285156 70.734375 42.285156 C 65.183594 42.285156 60.683594 46.785156 60.683594 52.335938 C 60.683594 56 62.644531 59.207031 65.574219 60.964844 L 61.59375 70.804688 L 61.035156 70.78125 C 57.292969 70.78125 54.261719 73.8125 54.261719 77.554688 C 54.261719 81.296875 57.292969 84.328125 61.035156 84.328125 C 62.808594 84.328125 64.421875 83.648438 65.625 82.535156 L 76.347656 88.40625 C 76.507812 89.515625 76.992188 90.511719 77.703125 91.308594 L 73.3125 100.71875 L 72.8125 100.691406 C 71.789062 100.691406 70.835938 101.007812 70.050781 101.542969 Z M 80.3125 62.511719 C 82.265625 62.511719 84.132812 63.144531 85.664062 64.277344 L 92.226562 61.898438 C 92.457031 60.601562 92.917969 59.367188 93.589844 58.238281 L 82.722656 42.300781 C 81.945312 42.472656 81.148438 42.5625 80.34375 42.5625 L 79.492188 42.53125 C 82.1875 44.9375 83.882812 48.4375 83.882812 52.335938 C 83.882812 56.496094 81.949219 60.207031 78.929688 62.621094 C 79.378906 62.546875 79.84375 62.511719 80.3125 62.511719 Z M 69.949219 114.777344 C 73.066406 114.777344 75.589844 117.304688 75.589844 120.421875 C 75.589844 123.535156 73.066406 126.0625 69.949219 126.0625 C 66.835938 126.0625 64.304688 123.535156 64.304688 120.421875 C 64.304688 117.304688 66.832031 114.777344 69.949219 114.777344 Z M 52.398438 106.226562 C 55.511719 106.226562 58.039062 108.753906 58.039062 111.871094 C 58.039062 114.988281 55.511719 117.511719 52.398438 117.511719 C 49.28125 117.511719 46.753906 114.988281 46.753906 111.871094 C 46.753906 108.753906 49.28125 106.226562 52.398438 106.226562 Z M 43.679688 86.652344 C 46.308594 86.652344 48.4375 88.78125 48.4375 91.410156 C 48.4375 94.039062 46.308594 96.171875 43.679688 96.171875 C 41.050781 96.171875 38.921875 94.039062 38.921875 91.410156 C 38.921875 88.78125 41.050781 86.652344 43.679688 86.652344 Z M 43.679688 86.652344 " fill-opacity="1" fill-rule="evenodd"/></g></svg>